{"asset":{"version":"2.0","generator":"TerraMapKit offline sample"},"extensionsUsed":["KHR_materials_unlit"],"scene":0,"scenes":[{"nodes":[0]}],"nodes":[{"mesh":0}],"meshes":[{"primitives":[{"attributes":{"POSITION":0},"indices":1,"material":0}]}],"materials":[{"extensions":{"KHR_materials_unlit":{}},"pbrMetallicRoughness":{"baseColorFactor":[1,1,1,1]},"doubleSided":true}],"buffers":[{"byteLength":168,"uri":"data:application/octet-stream;base64,"}],"bufferViews":[{"buffer":0,"byteOffset":0,"byteLength":96,"target":34962},{"buffer":0,"byteOffset":96,"byteLength":72,"target":34963}],"accessors":[{"bufferView":0,"componentType":5126,"count":8,"type":"VEC3","min":[-200,0,-200],"max":[200,400,200]},{"bufferView":1,"componentType":5123,"count":36,"type":"SCALAR"}]}